<svg width="24" height="24" viewBox="0 0 24 24" fill="none" xmlns="http://www.w3.org/2000/svg">
<path d="M16 22V18.13C16.0375 17.6531 15.9731 17.1738 15.811 16.7238C15.6489 16.2738 15.3929 15.8634 15.06 15.52C18.2 15.17 21.5 13.98 21.5 8.51998C21.4997 7.1238 20.9627 5.78117 20 4.76998C20.4559 3.54848 20.4236 2.19833 19.91 0.999976C19.91 0.999976 18.73 0.649976 16 2.47998C13.708 1.8588 11.292 1.8588 9 2.47998C6.27 0.649976 5.09 0.999976 5.09 0.999976C4.57638 2.19833 4.54414 3.54848 5 4.76998C4.03013 5.78868 3.49252 7.14344 3.5 8.54998C3.5 13.97 6.8 15.16 9.94 15.55C9.611 15.8899 9.35726 16.2954 9.19531 16.7399C9.03335 17.1844 8.96681 17.658 9 18.13V22M9 19C4 20.5 4 16.5 2 16L9 19Z" stroke="#3F49FE" stroke-width="1.5" stroke-linecap="round" stroke-linejoin="round"/>
</svg>
