<svg width="26" height="26" viewBox="0 0 26 26" fill="none" xmlns="http://www.w3.org/2000/svg">
<path d="M19 1H7C3.68629 1 1 3.68629 1 7V19C1 22.3137 3.68629 25 7 25H19C22.3137 25 25 22.3137 25 19V7C25 3.68629 22.3137 1 19 1Z" stroke="#3F49FE" stroke-width="1.5" stroke-linecap="round" stroke-linejoin="round"/>
<path d="M17.7999 12.2439C17.948 13.2426 17.7774 14.2625 17.3124 15.1586C16.8474 16.0547 16.1117 16.7814 15.2099 17.2353C14.3081 17.6892 13.2861 17.8472 12.2893 17.6868C11.2925 17.5264 10.3717 17.0558 9.65783 16.3419C8.94393 15.6281 8.47331 14.7073 8.31292 13.7105C8.15252 12.7138 8.31052 11.6918 8.76442 10.79C9.21833 9.88826 9.94504 9.15256 10.8412 8.68758C11.7373 8.2226 12.7573 8.05203 13.756 8.20012C14.7747 8.35117 15.7178 8.82584 16.446 9.55402C17.1742 10.2822 17.6488 11.2253 17.7999 12.2439Z" stroke="#3F49FE" stroke-width="1.5" stroke-linecap="round" stroke-linejoin="round"/>
<path d="M19.5996 6.3999H19.6116" stroke="#3F49FE" stroke-width="1.5" stroke-linecap="round" stroke-linejoin="round"/>
</svg>
